# xmcd
#
# Track frame offsets:
#	150
#	17678
#	35822
#	53572
#	76031
#	95321
#	110487
#	128352
#	145901
#	169239
#	186884
#	205912
#	223282
#	239081
#	255118
#	270363
#	288112
#	304066
#	320821
#	335579
#
# Disc length: 4687 seconds
#
# Revision: 1
# Processed by: cddbd v1.5.1PL0 Copyright (c) Steve Scherf et al.
# Submitted via: audiograbber 1.83.01
#
DISCID=1c124d14
DTITLE=>Sc - cyxc
DYEAR=2005
DGENRE=yxc
TTITLE0=dieteree
TTITLE1=fdlfkj
TTITLE2=sdf
TTITLE3=sdf
TTITLE4=sdgw
TTITLE5=sdg3r
TTITLE6=gfd
TTITLE7=sf
TTITLE8=gher
TTITLE9=fsf
TTITLE10=sdf
TTITLE11=sdf
TTITLE12=sherfwe
TTITLE13=sdf
TTITLE14=rwerwe
TTITLE15=qer
TTITLE16=wre
TTITLE17=wet3
TTITLE18=wer
TTITLE19=wet3
EXTD=dsafafdsgfd
EXTT0=
EXTT1=
EXTT2=
EXTT3=
EXTT4=
EXTT5=
EXTT6=
EXTT7=
EXTT8=
EXTT9=
EXTT10=
EXTT11=
EXTT12=
EXTT13=
EXTT14=
EXTT15=
EXTT16=
EXTT17=
EXTT18=
EXTT19=
PLAYORDER=
